<svg xmlns="http://www.w3.org/2000/svg" xmlns:xlink="http://www.w3.org/1999/xlink" width="945" zoomAndPan="magnify" viewBox="0 0 708.75 567.000005" height="756" preserveAspectRatio="xMidYMid meet" version="1.2"><defs><clipPath id="c53e357a52"><path d="M 65.40625 17 L 654 17 L 654 560.480469 L 65.40625 560.480469 Z M 65.40625 17 "/></clipPath><clipPath id="95f7a307fc"><path d="M 285 125 L 659 125 L 659 560.480469 L 285 560.480469 Z M 285 125 "/></clipPath><clipPath id="14ac37f6c2"><path d="M 182 137 L 440 137 L 440 560.480469 L 182 560.480469 Z M 182 137 "/></clipPath></defs><g id="b88c5602ba"><path style=" stroke:none;fill-rule:evenodd;fill:#c8effc;fill-opacity:1;" d="M 190.546875 417.996094 C 183.089844 353.371094 199.664062 287.09375 241.101562 232.414062 C 241.929688 230.753906 243.585938 229.097656 244.417969 228.269531 C 275.910156 189.332031 317.347656 159.503906 366.242188 143.765625 C 387.789062 137.136719 410.992188 132.992188 435.027344 132.164062 C 538.621094 128.023438 570.941406 276.324219 512.929688 354.203125 C 635.582031 341.773438 686.136719 198.445312 615.691406 104.824219 C 493.867188 -54.246094 71.210938 10.375 71.210938 368.285156 C 71.210938 437.050781 91.929688 501.671875 128.394531 554.695312 L 250.21875 554.695312 C 240.273438 543.925781 231.984375 531.5 224.527344 519.070312 C 206.292969 489.246094 194.691406 454.449219 190.546875 417.996094 Z M 190.546875 417.996094 "/><path style=" stroke:none;fill-rule:evenodd;fill:#62d9fa;fill-opacity:1;" d="M 241.101562 232.414062 C 207.953125 276.324219 188.890625 330.175781 188.890625 388.167969 C 188.890625 398.113281 188.890625 408.054688 190.546875 417.996094 C 194.691406 452.792969 205.464844 487.589844 224.527344 519.070312 C 224.527344 519.898438 224.527344 519.898438 224.527344 519.898438 C 231.984375 531.5 240.273438 543.925781 250.21875 554.695312 L 433.371094 554.695312 C 415.964844 546.410156 400.21875 536.46875 386.132812 524.871094 C 270.9375 432.078125 256.019531 253.953125 366.242188 143.765625 C 319.003906 159.503906 276.738281 188.503906 244.417969 228.269531 C 243.585938 229.097656 241.929688 230.753906 241.101562 232.414062 Z M 241.101562 232.414062 "/><path style=" stroke:none;fill-rule:evenodd;fill:#00a2e9;fill-opacity:1;" d="M 366.242188 143.765625 C 256.019531 253.953125 270.9375 432.078125 386.132812 524.871094 C 399.390625 535.640625 414.308594 545.582031 430.054688 553.867188 C 430.882812 553.867188 432.539062 554.695312 433.371094 554.695312 L 639.726562 554.695312 C 644.699219 549.726562 648.84375 543.925781 652.984375 538.128906 L 652.984375 456.933594 C 454.089844 538.128906 282.539062 286.265625 435.027344 132.164062 C 411.824219 132.992188 388.617188 137.136719 366.242188 143.765625 Z M 366.242188 143.765625 "/><g clip-rule="nonzero" clip-path="url(#c53e357a52)"><path style=" stroke:none;fill-rule:nonzero;fill:#18191b;fill-opacity:1;" d="M 77.011719 368.285156 C 77.011719 401.425781 81.984375 433.738281 91.097656 464.390625 C 101.042969 494.21875 114.304688 523.214844 131.707031 548.898438 L 237.785156 548.898438 C 202.152344 502.5 183.917969 447.820312 182.261719 392.3125 C 181.433594 332.660156 200.492188 273.007812 240.273438 224.128906 C 264.304688 194.300781 293.3125 170.277344 326.460938 153.707031 C 359.613281 137.136719 396.90625 127.195312 435.027344 125.535156 C 459.0625 124.707031 480.609375 132.164062 497.183594 144.59375 C 512.929688 157.019531 525.359375 173.589844 533.648438 192.644531 C 541.933594 210.871094 546.90625 232.414062 547.734375 253.953125 C 548.566406 286.265625 541.105469 319.40625 525.359375 346.746094 C 547.734375 342.601562 567.625 332.660156 584.199219 320.234375 C 604.917969 304.492188 620.664062 283.78125 630.609375 260.582031 C 639.726562 236.554688 643.871094 210.871094 641.382812 185.1875 C 638.070312 157.847656 628.125 132.164062 610.71875 108.96875 C 570.941406 55.945312 497.183594 28.601562 416.792969 28.601562 C 380.332031 28.601562 342.207031 34.402344 305.742188 46 C 269.277344 57.601562 233.644531 75.828125 202.152344 99.855469 C 129.222656 154.535156 77.011719 243.183594 77.011719 368.285156 Z M 80.324219 467.707031 C 70.378906 436.222656 65.410156 403.082031 65.410156 368.285156 C 65.410156 239.039062 119.277344 147.90625 194.691406 89.910156 C 227.839844 65.058594 264.304688 46.828125 301.601562 35.230469 C 339.722656 22.804688 379.5 17.003906 416.792969 17.003906 C 500.496094 17.003906 577.570312 46 619.835938 101.511719 C 638.898438 126.367188 649.671875 154.535156 652.984375 183.53125 C 655.472656 211.699219 651.328125 239.871094 641.382812 264.722656 C 630.609375 290.40625 614.035156 312.777344 591.660156 330.175781 C 570.113281 345.917969 543.59375 357.515625 512.929688 360 C 512.101562 360.828125 510.441406 360 508.785156 359.171875 C 506.300781 357.515625 506.300781 353.371094 507.957031 350.886719 C 527.847656 324.375 536.960938 288.75 535.304688 254.78125 C 534.476562 234.070312 530.332031 214.1875 522.875 196.789062 C 514.585938 179.390625 503.8125 164.476562 489.722656 154.535156 C 475.636719 142.933594 456.574219 137.136719 435.027344 137.964844 C 398.5625 138.792969 363.753906 148.734375 332.261719 164.476562 C 300.769531 180.21875 271.765625 203.414062 249.390625 231.585938 C 212.09375 278.808594 193.863281 335.144531 194.691406 392.3125 C 195.519531 448.648438 215.410156 504.988281 254.363281 550.554688 C 255.191406 551.382812 256.019531 553.039062 256.019531 554.695312 C 256.019531 558.011719 253.53125 560.496094 250.21875 560.496094 L 128.394531 560.496094 C 126.734375 560.496094 124.25 559.667969 123.421875 558.011719 C 104.359375 530.671875 90.269531 500.015625 80.324219 467.707031 Z M 80.324219 467.707031 "/></g><g clip-rule="nonzero" clip-path="url(#95f7a307fc)"><path style=" stroke:none;fill-rule:nonzero;fill:#18191b;fill-opacity:1;" d="M 434.199219 548.898438 L 637.238281 548.898438 C 638.898438 547.242188 640.554688 544.753906 642.210938 543.097656 C 643.871094 540.613281 645.527344 538.128906 647.183594 536.46875 L 647.183594 466.046875 C 588.34375 487.589844 531.988281 480.960938 486.410156 456.933594 C 454.089844 440.363281 426.738281 415.511719 406.851562 385.683594 C 386.960938 355.859375 374.527344 321.890625 371.214844 286.265625 C 367.070312 236.554688 381.160156 184.359375 420.109375 138.792969 C 414.308594 139.621094 407.679688 140.449219 401.046875 141.277344 C 390.273438 142.933594 379.5 146.25 369.554688 148.734375 C 350.496094 168.617188 334.75 190.160156 323.148438 213.355469 C 299.113281 261.410156 292.484375 314.433594 300.769531 364.972656 C 309.058594 416.339844 332.261719 464.390625 370.386719 502.5 C 388.617188 520.730469 410.164062 536.46875 434.199219 548.898438 Z M 639.726562 560.496094 L 433.371094 560.496094 C 431.710938 560.496094 430.882812 560.496094 430.054688 559.667969 C 404.363281 547.242188 381.160156 529.84375 362.097656 510.785156 C 322.316406 471.019531 297.457031 420.480469 289.167969 367.457031 C 280.050781 314.433594 287.511719 258.097656 312.375 208.386719 C 324.804688 183.53125 341.378906 160.332031 362.097656 139.621094 C 362.925781 138.792969 363.753906 138.792969 364.585938 137.964844 C 376.1875 134.652344 387.789062 131.335938 399.390625 129.679688 C 410.992188 128.023438 422.597656 126.367188 435.027344 125.535156 C 435.855469 125.535156 438.34375 126.367188 439.171875 127.195312 C 441.65625 129.679688 441.65625 133.820312 439.171875 136.308594 C 395.246094 181.046875 378.671875 234.070312 382.816406 284.609375 C 386.132812 318.574219 397.734375 350.886719 416.792969 379.054688 C 435.855469 407.226562 461.546875 430.421875 491.382812 446.164062 C 536.960938 470.191406 592.488281 475.160156 650.5 451.964844 C 651.328125 451.136719 652.15625 451.136719 652.984375 451.136719 C 656.300781 451.136719 658.789062 453.621094 658.789062 456.933594 L 658.789062 538.128906 C 658.789062 539.785156 658.789062 540.613281 657.957031 541.441406 C 655.472656 544.753906 653.816406 547.242188 651.328125 550.554688 C 648.84375 553.039062 647.183594 555.527344 644.699219 558.011719 C 643.871094 559.667969 642.210938 560.496094 639.726562 560.496094 Z M 639.726562 560.496094 "/></g><g clip-rule="nonzero" clip-path="url(#14ac37f6c2)"><path style=" stroke:none;fill-rule:nonzero;fill:#18191b;fill-opacity:1;" d="M 345.523438 157.847656 C 304.085938 176.074219 268.449219 205.074219 242.757812 240.699219 C 212.09375 282.121094 194.691406 333.488281 194.691406 388.167969 C 194.691406 418.824219 199.664062 447.820312 209.609375 475.160156 C 220.382812 501.671875 234.472656 527.355469 252.703125 548.898438 L 410.164062 548.898438 C 391.933594 538.128906 376.1875 524.871094 362.097656 510.785156 C 322.316406 471.019531 297.457031 420.480469 289.167969 366.628906 C 280.050781 313.605469 288.339844 258.097656 313.203125 207.558594 C 321.488281 190.160156 332.261719 173.589844 345.523438 157.847656 Z M 232.8125 233.242188 C 265.136719 189.332031 310.714844 155.363281 364.585938 137.964844 C 366.242188 137.136719 368.726562 137.964844 370.386719 139.621094 C 372.871094 142.105469 372.871094 145.421875 370.386719 147.90625 C 351.324219 167.789062 335.578125 189.332031 323.976562 213.355469 C 299.941406 260.582031 292.484375 314.433594 300.769531 364.972656 C 309.058594 416.339844 332.261719 464.390625 370.386719 502.5 C 388.617188 520.730469 410.164062 536.46875 435.027344 548.898438 C 437.511719 549.726562 439.171875 552.210938 439.171875 554.695312 C 439.171875 558.011719 436.683594 560.496094 433.371094 560.496094 L 250.21875 560.496094 C 248.558594 560.496094 246.902344 559.667969 246.074219 558.839844 C 225.355469 535.640625 209.609375 508.300781 198.835938 479.304688 C 188.0625 450.308594 182.261719 419.652344 182.261719 388.167969 C 182.261719 331.003906 201.320312 277.152344 232.8125 233.242188 Z M 232.8125 233.242188 "/></g></g></svg>